<?xml version="1.0" encoding="UTF-8"?>
<!DOCTYPE svg PUBLIC "-//W3C//DTD SVG 1.1//EN" "http://www.w3.org/Graphics/SVG/1.1/DTD/svg11.dtd">
<!-- Creator: CorelDRAW X7 -->
<svg xmlns="http://www.w3.org/2000/svg" xml:space="preserve" width="60px" height="211667px" version="1.1" style="shape-rendering:geometricPrecision; text-rendering:geometricPrecision; image-rendering:optimizeQuality; fill-rule:evenodd; clip-rule:evenodd"
viewBox="0 0 19 19"
 xmlns:xlink="http://www.w3.org/1999/xlink">
 <defs>
  <style type="text/css">
   <![CDATA[
    .str0 {stroke:#EF7F1A;stroke-width:0.433925}
    .fil0 {fill:none}
    .fil1 {fill:#ED721D}
   ]]>
  </style>
 </defs>
 <g id="Layer_x0020_1">
  <metadata id="CorelCorpID_0Corel-Layer"/>
  <path class="fil0 str0" d="M9 0c6,0 10,4 10,9 0,6 -4,10 -10,10 -5,0 -9,-4 -9,-10 0,-5 4,-9 9,-9z"/>
  <g id="_700041152">
   <path class="fil1" d="M9 13c0,0 1,-1 2,-1 0,0 0,0 0,0 1,0 1,0 1,0 0,1 0,1 0,1 0,0 0,0 0,0 -1,0 -1,0 -1,0 0,0 -1,0 -1,0 0,0 -1,0 -1,0 -1,0 -1,0 -1,-1 -1,0 -1,1 -1,1l0 0c0,0 0,0 0,0 0,0 0,0 0,0 0,1 1,1 1,1 0,0 0,0 1,0 0,1 0,1 0,1 0,0 1,0 1,0 0,0 0,0 0,0 1,0 1,0 1,0 1,0 2,-1 3,-2 0,0 0,0 1,0l-1 -1c0,-1 0,-1 0,-1 0,0 -1,0 -1,0 -1,0 -1,0 -1,0 -1,0 -1,0 -2,0 0,0 0,0 0,0 0,0 0,1 0,1 -1,0 -1,0 -1,0 0,0 0,1 0,1z"/>
   <path class="fil1" d="M11 6c0,0 0,0 0,0 0,0 0,0 0,0 0,0 0,0 0,0 0,1 1,1 1,1 0,0 0,1 -1,1 0,0 0,0 0,0 -1,0 -2,-1 -3,-1 0,0 0,1 0,1l-1 1c2,0 4,0 6,0l1 0c0,0 1,0 1,0 0,0 0,0 0,0l1 -3 -1 0c0,0 0,0 -1,0 0,0 -1,0 -2,0 0,0 0,0 0,0 -1,0 -1,0 -1,0 0,0 0,0 0,0z"/>
   <path class="fil1" d="M5 4c0,1 0,2 0,2 0,0 0,1 0,1 0,0 0,0 0,0l0 1c0,0 1,0 2,0l0 0c0,0 0,0 0,0 0,0 0,-1 0,-1l-1 0 0 0c0,0 1,0 2,0 0,0 0,0 1,0 0,0 0,0 1,0 0,0 1,1 1,1 0,-1 0,-1 0,-1 0,0 -1,0 -1,-1l-1 0c-1,0 0,-1 0,-1 0,0 0,0 1,0 0,1 0,1 0,1 0,0 0,0 1,0 0,0 0,0 0,0 0,-1 -1,-1 -1,-2 -1,0 -3,0 -4,0 0,0 0,0 -1,0z"/>
   <path class="fil1" d="M3 9l1 0c0,0 0,0 0,0l0 -3c0,0 0,0 0,0 0,-1 0,-1 0,-1 0,0 0,-1 0,-1 0,0 0,0 0,0l-1 0c0,0 0,0 0,0l0 5z"/>
   <path class="fil1" d="M15 14l1 0c0,0 0,0 0,0 0,-1 0,-2 0,-3 0,0 0,0 0,0l-1 0c0,0 0,0 0,1 0,0 0,1 0,2 0,0 0,0 0,0z"/>
   <path class="fil1" d="M4 8l1 0 0 -4 0 0c0,1 0,1 0,1 0,0 0,0 0,0l-1 2c0,0 0,0 0,0 0,0 0,0 0,0 0,0 0,0 0,0 0,0 0,0 0,0l0 1z"/>
   <path class="fil1" d="M15 14l0 0 0 -1c0,-1 0,-1 0,-2 0,0 0,0 0,1 0,0 0,0 0,0 0,0 0,1 0,1 0,0 0,0 0,1z"/>
   <path class="fil1" d="M10 9c0,0 0,0 -1,0 0,0 0,0 0,1 0,0 1,0 1,0 0,0 0,0 0,-1z"/>
   <path class="fil1" d="M9 10c0,0 0,0 0,-1 0,0 0,0 0,0 0,0 0,1 0,1 0,0 0,0 0,0z"/>
   <path class="fil1" d="M9 9c0,0 0,0 -1,0 0,1 1,1 1,0z"/>
  </g>
 </g>
</svg>
